<svg xmlns="http://www.w3.org/2000/svg" fill="white" height="24" viewBox="0 0 24 24" width="24" focusable="false" aria-hidden="true" style="pointer-events: none; display: inherit; width: 100%; height: 100%;"><path clip-rule="evenodd" d="m8.042 9.456-.716.08c-.732.08-1.486-.16-2.043-.718-.977-.976-.977-2.559 0-3.535.976-.977 2.559-.977 3.535 0 .558.557.798 1.312.717 2.044l-.079.715.51.51 10.13 10.13c-.97.643-2.291.537-3.146-.318l-4.951-4.951-1.061 1.06 4.951 4.952c1.442 1.442 3.712 1.553 5.282.331.13-.1.255-.212.375-.331l.707-.707-1.06-1.061L15.534 12l5.657-5.657 1.06-1.06-.706-.708c-.12-.12-.245-.23-.376-.331-1.569-1.222-3.839-1.111-5.281.331L13.06 7.404l1.061 1.06 2.829-2.828c.855-.855 2.175-.961 3.146-.318l-4.56 4.56 1.06 1.061L15.536 12l-4.51-4.51c.128-1.164-.254-2.375-1.147-3.268-1.562-1.562-4.095-1.562-5.657 0-1.562 1.562-1.562 4.095 0 5.657.893.893 2.104 1.276 3.269 1.147l2.033 2.033 1.06-1.06-2.033-2.033-.509-.51Zm-.285-3.113c-.39-.39-1.023-.39-1.414 0-.39.39-.39 1.024 0 1.415.39.39 1.024.39 1.414 0 .39-.391.39-1.024 0-1.415Zm-.43 8.122.715.079.51-.51.973-.973L8.465 12l-.975.974c-1.165-.128-2.375.254-3.268 1.147-1.562 1.562-1.562 4.095 0 5.657 1.562 1.562 4.094 1.562 5.657 0 .893-.893 1.275-2.104 1.147-3.269l.974-.973-1.06-1.061-.975.974-.509.509.079.716c.08.732-.16 1.486-.717 2.044-.976.976-2.56.976-3.536 0-.976-.977-.976-2.56 0-3.536.558-.558 1.312-.798 2.044-.717Zm-.984 3.192c.39.39 1.024.39 1.414 0 .39-.39.39-1.024 0-1.414-.39-.39-1.023-.39-1.414 0-.39.39-.39 1.023 0 1.414Z" fill-rule="evenodd"></path></svg>