<svg xmlns="http://www.w3.org/2000/svg" fill="white" height="24" viewBox="0 0 24 24" width="24" focusable="false" aria-hidden="true" style="pointer-events: none; display: inherit; width: 100%; height: 100%;"><path clip-rule="evenodd" d="M3.5 12c0 4.694 3.806 8.5 8.5 8.5s8.5-3.806 8.5-8.5-3.806-8.5-8.5-8.5S3.5 7.306 3.5 12ZM12 2C6.477 2 2 6.477 2 12s4.477 10 10 10 10-4.477 10-10S17.523 2 12 2Zm2.245 7.505v-.003l-.003-.045c-.004-.044-.012-.114-.03-.2-.034-.174-.103-.4-.234-.619-.234-.39-.734-.883-1.978-.883s-1.744.494-1.978.883c-.131.22-.2.445-.235.62-.017.085-.025.155-.029.2l-.003.044v.004c-.004.415-.34.749-.755.749-.417 0-.755-.338-.755-.755H9h-.755v-.022l.001-.036.008-.114c.008-.092.023-.218.053-.367.058-.294.177-.694.42-1.1.517-.86 1.517-1.616 3.273-1.616 1.756 0 2.756.756 3.272 1.617.244.405.363.805.421 1.1.03.148.046.274.053.366l.008.114v.036l.001.013v.008L15 9.5h.755c0 .799-.249 1.397-.676 1.847-.374.395-.853.634-1.202.808l-.04.02c-.398.2-.646.333-.82.516-.136.143-.262.358-.262.809 0 .417-.338.755-.755.755s-.755-.338-.755-.755c0-.799.249-1.397.676-1.847.374-.395.853-.634 1.202-.808l.04-.02c.398-.2.646-.333.82-.516.135-.143.261-.356.262-.804ZM12 18.25c.69 0 1.25-.56 1.25-1.25s-.56-1.25-1.25-1.25-1.25.56-1.25 1.25.56 1.25 1.25 1.25Z" fill-rule="evenodd"></path></svg>