<svg xmlns="http://www.w3.org/2000/svg" fill="white" height="24" viewBox="0 0 24 24" width="24" focusable="false" aria-hidden="true" style="pointer-events: none; display: inherit; width: 100%; height: 100%;"><path clip-rule="evenodd" d="M6.379 17.5H19c.276 0 .5-.224.5-.5V5c0-.276-.224-.5-.5-.5H5c-.276 0-.5.224-.5.5v14.379l1.44-1.44.439-.439Zm-1.879 4-.033.033-.26.26-.353.353c-.315.315-.854.092-.854-.353V5c0-1.105.895-2 2-2h14c1.105 0 2 .895 2 2v12c0 1.105-.895 2-2 2H7l-2.5 2.5ZM12 6c.552 0 1 .448 1 1v4c0 .552-.448 1-1 1s-1-.448-1-1V7c0-.552.448-1 1-1Zm0 9.75c.69 0 1.25-.56 1.25-1.25s-.56-1.25-1.25-1.25-1.25.56-1.25 1.25.56 1.25 1.25 1.25Z" fill-rule="evenodd"></path></svg>