<svg xmlns="http://www.w3.org/2000/svg" fill="white" height="24" viewBox="0 0 24 24" width="24" focusable="false" aria-hidden="true" style="pointer-events: none; display: inherit; width: 100%; height: 100%;"><path clip-rule="evenodd" d="M4.75 3H4v18.25c0 .414.336.75.75.75s.75-.336.75-.75V14H11l.585 1.17c.254.509.774.83 1.342.83H18.5c.828 0 1.5-.672 1.5-1.5v-8c0-.828-.672-1.5-1.5-1.5H13l-.585-1.17C12.16 3.32 11.64 3 11.073 3H4.75Zm.75 9.5h6.427l.415.83.585 1.17H18.5v-8h-6.427l-.415-.83-.585-1.17H5.5v8Z" fill-rule="evenodd"></path></svg>